<?xml version="1.0" encoding="UTF-8" standalone="no"?>
<svg
   xmlns:dc="http://purl.org/dc/elements/1.1/"
   xmlns:cc="http://creativecommons.org/ns#"
   xmlns:rdf="http://www.w3.org/1999/02/22-rdf-syntax-ns#"
   xmlns:svg="http://www.w3.org/2000/svg"
   xmlns="http://www.w3.org/2000/svg"
   xmlns:sodipodi="http://sodipodi.sourceforge.net/DTD/sodipodi-0.dtd"
   xmlns:inkscape="http://www.inkscape.org/namespaces/inkscape"
   width="240"
   height="39"
   version="1.1"
   id="svg8"
   sodipodi:docname="logo-footer.svg"
   inkscape:version="0.92.4 5da689c313, 2019-01-14">
  <metadata
     id="metadata14">
    <rdf:RDF>
      <cc:Work
         rdf:about="">
        <dc:format>image/svg+xml</dc:format>
        <dc:type
           rdf:resource="http://purl.org/dc/dcmitype/StillImage" />
        <dc:title></dc:title>
      </cc:Work>
    </rdf:RDF>
  </metadata>
  <defs
     id="defs12" />
  <sodipodi:namedview
     pagecolor="#ffffff"
     bordercolor="#666666"
     borderopacity="1"
     objecttolerance="10"
     gridtolerance="10"
     guidetolerance="10"
     inkscape:pageopacity="0"
     inkscape:pageshadow="2"
     inkscape:window-width="1366"
     inkscape:window-height="744"
     id="namedview10"
     showgrid="false"
     inkscape:zoom="1.9166667"
     inkscape:cx="94.695652"
     inkscape:cy="19.5"
     inkscape:window-x="0"
     inkscape:window-y="0"
     inkscape:window-maximized="0"
     inkscape:current-layer="svg8" />
  <path
     style="fill:#ffffff;fill-rule:nonzero;fill-opacity:1"
     inkscape:connector-curvature="0"
     id="path2"
     d="M 27.967,0.879 C 20.242,0.875 12.182,2.615 4.047,4.872 3.014,5.08 2.006,5.756 1.473,6.592 0.983,7.38 0.805,8.171 0.652,9 c -0.79,4.428 -0.694,8.776 -0.53,13.594 0.036,1.103 0.2,2.41 0.715,3.205 0.538,0.803 1.46,1.313 2.561,1.48 a 95.99,95.99 0 0 0 4.232,0.525 l -0.312,8.698 c -0.048,0.692 0.29,1.267 0.71,1.598 0.376,0.286 0.795,0.413 1.225,0.445 0.86,0.065 1.869,-0.303 2.37,-1.257 2.195,-4.224 3.572,-6.089 6.317,-8.895 7.158,0.176 13.407,-0.222 20.482,-0.745 2.501,-0.065 4.218,-2.11 4.672,-3.743 1.357,-4.232 1.568,-9.456 1.712,-14.737 C 44.867,7.075 44.141,5.02 42.856,3.934 41.634,2.943 40.154,2.584 38.798,2.216 35.031,1.363 31.263,0.905 27.967,0.879 Z m 10.29,3.31 c 1.358,0.369 2.555,0.724 3.31,1.337 1.26,1.339 1.218,2.23 1.2,3.675 -0.142,5.122 -0.388,10.093 -1.544,13.86 -0.498,1.405 -1.366,2.405 -3.006,2.556 -7.208,0.533 -13.462,0.945 -20.707,0.739 a 1.032,1.032 0 0 0 -0.763,0.302 c -3.044,3.074 -4.601,5.21 -6.921,9.676 C 9.772,36.436 9.655,36.498 9.511,36.509 9.414,36.504 9.375,36.429 9.369,36.361 L 9.683,26.929 C 9.702,26.42 9.282,25.934 8.776,25.879 a 95.48,95.48 0 0 1 -5.06,-0.62 C 2.99,25.148 2.722,24.949 2.523,24.653 2.177,23.828 2.185,23.318 2.158,22.525 1.996,17.75 1.916,13.577 2.649,9.425 2.717,8.811 2.947,8.183 3.191,7.658 3.595,7.026 4.214,6.933 4.835,6.761 c 7.956,-2.197 15.74,-3.84 23.068,-3.845 3.592,0.13 7.364,0.49 10.354,1.273 z m -27.479,8.09 c -1.096,1.313 -0.987,3.096 -0.14,4.29 0.442,0.625 1.132,1.128 1.972,1.242 1.091,0.09 1.783,-0.352 2.53,-0.86 1.353,-1.176 1.49,-3.228 0.461,-4.71 -0.524,-0.755 -1.362,-1.208 -2.218,-1.24 -1.172,0.012 -1.968,0.535 -2.605,1.277 z m 11.856,-1.072 c -1.092,0.035 -1.975,0.791 -2.514,1.607 -0.617,0.933 -0.977,2.101 -0.478,3.246 0.96,2.203 4.277,2.176 5.6,-0.063 0.61,-1.032 0.454,-2.205 0,-3.056 -0.452,-0.85 -1.136,-1.543 -2.131,-1.702 a 2.494,2.494 0 0 0 -0.477,-0.032 z m 9.625,0.207 c -0.34,-0.008 -0.69,0.024 -1.018,0.111 -1.312,0.35 -2.429,1.704 -2.26,3.437 0.086,0.872 0.487,1.722 1.21,2.308 0.723,0.585 1.773,0.847 2.88,0.62 1.272,-0.26 2.06,-1.285 2.323,-2.275 0.263,-0.99 0.197,-1.999 -0.414,-2.817 a 3.47,3.47 0 0 0 -2.72,-1.384 z m -18.965,1.623 c 0.245,0.002 0.438,0.08 0.637,0.366 0.445,0.642 0.321,1.615 -0.128,2.005 -0.447,0.39 -0.726,0.424 -0.922,0.398 -0.196,-0.027 -0.395,-0.162 -0.573,-0.414 -0.34,-0.48 -0.44,-1.256 0.007,-1.81 0.238,-0.316 0.675,-0.513 0.98,-0.545 z m 9.483,0.223 c 0.038,0.006 0.464,0.253 0.668,0.636 0.204,0.383 0.242,0.739 0.048,1.066 -0.577,0.976 -1.804,0.712 -1.99,0.287 -0.07,-0.162 -0.017,-0.813 0.32,-1.32 0.335,-0.509 0.757,-0.7 0.954,-0.67 z m 10.564,0.748 c 0.062,0.083 0.213,0.64 0.096,1.082 -0.118,0.442 -0.31,0.715 -0.78,0.811 -0.602,0.124 -0.94,0 -1.193,-0.207 -0.254,-0.205 -0.425,-0.552 -0.462,-0.923 -0.09,-0.92 0.24,-1.133 0.764,-1.273 0.61,-0.15 1.3,0.112 1.575,0.51 z" />
  <path
     style="fill:#ffffff;fill-rule:nonzero;fill-opacity:1"
     inkscape:connector-curvature="0"
     id="path4"
     d="m 57.61,4.996 c 0.016,-0.26 0.111,-0.494 0.287,-0.701 a 0.875,0.875 0 0 1 0.701,-0.31 h 6.826 c 0.23,0 0.467,0.096 0.712,0.287 a 0.883,0.883 0 0 1 0.368,0.724 V 15.889 H 77.925 V 4.996 c 0,-0.276 0.096,-0.513 0.287,-0.712 0.192,-0.2 0.44,-0.3 0.747,-0.3 h 6.734 c 0.306,0 0.574,0.077 0.804,0.23 0.23,0.154 0.345,0.399 0.345,0.736 V 37.1 c 0,0.337 -0.1,0.59 -0.3,0.758 -0.198,0.169 -0.459,0.253 -0.78,0.253 h -6.803 c -0.306,0 -0.555,-0.084 -0.747,-0.253 C 78.021,37.69 77.925,37.438 77.925,37.1 V 24.047 H 66.504 V 37.1 c 0,0.322 -0.104,0.57 -0.31,0.747 -0.207,0.176 -0.487,0.264 -0.84,0.264 h -6.756 c -0.643,0 -0.972,-0.299 -0.988,-0.896 z m 62.875,32.725 c -0.199,0.168 -0.41,0.275 -0.632,0.321 a 3.123,3.123 0 0 1 -0.631,0.07 h -3.47 c -0.276,0 -0.514,-0.05 -0.713,-0.15 -0.2,-0.1 -0.368,-0.234 -0.506,-0.402 a 2.384,2.384 0 0 1 -0.344,-0.575 4.884,4.884 0 0 1 -0.23,-0.666 l -0.712,-2.942 c -0.23,0.475 -0.563,1.015 -1,1.62 a 8.495,8.495 0 0 1 -1.666,1.7 c -0.674,0.53 -1.479,0.974 -2.413,1.334 -0.935,0.36 -2.007,0.54 -3.218,0.54 -1.746,0 -3.332,-0.337 -4.757,-1.011 A 10.904,10.904 0 0 1 96.551,34.802 C 95.548,33.638 94.77,32.278 94.219,30.722 93.667,29.168 93.391,27.509 93.391,25.748 V 10.695 c 0,-0.582 0.127,-1.022 0.38,-1.321 0.252,-0.299 0.654,-0.448 1.206,-0.448 h 5.308 c 0.66,0 1.111,0.11 1.356,0.333 0.245,0.222 0.368,0.655 0.368,1.298 v 14.96 c 0,0.66 0.15,1.284 0.448,1.874 0.299,0.59 0.693,1.11 1.184,1.562 0.49,0.452 1.045,0.809 1.666,1.069 0.62,0.26 1.252,0.39 1.896,0.39 0.551,0 1.122,-0.13 1.712,-0.39 a 6.361,6.361 0 0 0 1.631,-1.046 c 0.498,-0.436 0.908,-0.95 1.23,-1.54 0.322,-0.59 0.482,-1.214 0.482,-1.872 V 10.626 c 0,-0.26 0.05,-0.52 0.15,-0.781 0.1,-0.26 0.249,-0.46 0.448,-0.598 0.199,-0.122 0.387,-0.206 0.563,-0.252 0.176,-0.046 0.38,-0.07 0.609,-0.07 h 5.194 c 0.658,0 1.133,0.162 1.424,0.483 0.291,0.322 0.437,0.751 0.437,1.287 v 25.716 c 0,0.29 -0.065,0.559 -0.195,0.804 -0.13,0.245 -0.31,0.437 -0.54,0.574 z m 26.681,-3.172 c -0.414,0.414 -0.87,0.858 -1.367,1.333 -0.498,0.475 -1.046,0.92 -1.643,1.333 a 9.3,9.3 0 0 1 -1.93,1.023 6.097,6.097 0 0 1 -2.23,0.402 c -2.083,0 -4.002,-0.39 -5.757,-1.172 a 13.777,13.777 0 0 1 -4.527,-3.206 c -1.264,-1.356 -2.252,-2.953 -2.964,-4.792 -0.713,-1.838 -1.069,-3.814 -1.069,-5.929 0,-2.13 0.356,-4.11 1.069,-5.94 0.712,-1.83 1.7,-3.424 2.964,-4.78 a 13.635,13.635 0 0 1 4.527,-3.194 c 1.755,-0.774 3.674,-1.161 5.757,-1.161 0.843,0 1.613,0.123 2.31,0.368 a 8.51,8.51 0 0 1 1.907,0.942 c 0.575,0.383 1.103,0.816 1.586,1.298 0.482,0.483 0.938,0.954 1.367,1.414 V 1.985 c 0,-0.49 0.15,-0.903 0.448,-1.24 0.299,-0.338 0.747,-0.506 1.345,-0.506 h 5.17 c 0.2,0 0.41,0.042 0.632,0.126 0.222,0.085 0.425,0.203 0.61,0.357 0.183,0.153 0.332,0.337 0.447,0.551 0.115,0.215 0.173,0.452 0.173,0.712 v 34.357 c 0,1.18 -0.62,1.77 -1.862,1.77 h -4.504 c -0.306,0 -0.544,-0.04 -0.712,-0.116 a 1.13,1.13 0 0 1 -0.426,-0.333 2.319,2.319 0 0 1 -0.31,-0.551 17.13,17.13 0 0 0 -0.344,-0.77 z M 133.952,23.541 a 8.39,8.39 0 0 0 0.471,2.839 c 0.314,0.88 0.762,1.643 1.345,2.286 a 6.384,6.384 0 0 0 2.102,1.528 c 0.82,0.376 1.728,0.563 2.724,0.563 0.98,0 1.903,-0.176 2.769,-0.528 a 7.058,7.058 0 0 0 2.263,-1.46 7.256,7.256 0 0 0 1.552,-2.194 c 0.39,-0.843 0.609,-1.747 0.655,-2.712 v -0.322 a 7.26,7.26 0 0 0 -0.552,-2.803 7.427,7.427 0 0 0 -1.528,-2.344 7.242,7.242 0 0 0 -2.298,-1.597 6.977,6.977 0 0 0 -2.861,-0.586 c -0.996,0 -1.904,0.195 -2.724,0.586 -0.82,0.39 -1.52,0.923 -2.102,1.597 a 7.236,7.236 0 0 0 -1.345,2.344 8.35,8.35 0 0 0 -0.47,2.803 z m 48.72,11.008 c -0.414,0.414 -0.87,0.858 -1.368,1.333 -0.498,0.475 -1.046,0.92 -1.643,1.333 a 9.3,9.3 0 0 1 -1.93,1.023 6.097,6.097 0 0 1 -2.23,0.402 c -2.083,0 -4.002,-0.39 -5.756,-1.172 a 13.777,13.777 0 0 1 -4.528,-3.206 c -1.263,-1.356 -2.252,-2.953 -2.964,-4.792 -0.712,-1.838 -1.069,-3.814 -1.069,-5.929 0,-2.13 0.357,-4.11 1.069,-5.94 0.712,-1.83 1.7,-3.424 2.964,-4.78 a 13.635,13.635 0 0 1 4.528,-3.194 c 1.754,-0.774 3.673,-1.161 5.756,-1.161 0.843,0 1.613,0.123 2.31,0.368 a 8.51,8.51 0 0 1 1.907,0.942 c 0.575,0.383 1.103,0.816 1.586,1.298 0.483,0.483 0.938,0.954 1.367,1.414 V 1.985 c 0,-0.49 0.15,-0.903 0.448,-1.24 0.3,-0.338 0.747,-0.506 1.345,-0.506 h 5.17 c 0.2,0 0.41,0.042 0.632,0.126 0.223,0.085 0.426,0.203 0.61,0.357 0.183,0.153 0.333,0.337 0.448,0.551 0.114,0.215 0.172,0.452 0.172,0.712 v 34.357 c 0,1.18 -0.62,1.77 -1.862,1.77 h -4.504 c -0.306,0 -0.544,-0.04 -0.712,-0.116 a 1.13,1.13 0 0 1 -0.425,-0.333 2.319,2.319 0 0 1 -0.31,-0.551 17.13,17.13 0 0 0 -0.345,-0.77 l -0.667,-1.793 z M 169.457,23.541 a 8.39,8.39 0 0 0 0.471,2.839 c 0.315,0.88 0.763,1.643 1.345,2.286 a 6.384,6.384 0 0 0 2.103,1.528 c 0.82,0.376 1.727,0.563 2.723,0.563 0.98,0 1.903,-0.176 2.769,-0.528 a 7.058,7.058 0 0 0 2.264,-1.46 7.256,7.256 0 0 0 1.55,-2.194 c 0.391,-0.843 0.61,-1.747 0.656,-2.712 v -0.322 a 7.26,7.26 0 0 0 -0.552,-2.803 7.427,7.427 0 0 0 -1.528,-2.344 7.242,7.242 0 0 0 -2.298,-1.597 6.977,6.977 0 0 0 -2.861,-0.586 c -0.996,0 -1.904,0.195 -2.723,0.586 -0.82,0.39 -1.521,0.923 -2.103,1.597 a 7.236,7.236 0 0 0 -1.345,2.344 8.35,8.35 0 0 0 -0.47,2.803 z M 197.61,2.008 c 0,-0.49 0.122,-0.903 0.367,-1.24 0.246,-0.338 0.667,-0.506 1.264,-0.506 h 5.63 c 0.154,0 0.315,0.042 0.483,0.126 a 1.7,1.7 0 0 1 0.471,0.357 c 0.146,0.153 0.268,0.337 0.368,0.551 0.1,0.215 0.15,0.452 0.15,0.712 v 34.334 c 0,0.582 -0.165,1.022 -0.495,1.321 -0.329,0.299 -0.754,0.448 -1.275,0.448 h -5.332 c -0.597,0 -1.018,-0.15 -1.264,-0.448 -0.245,-0.299 -0.367,-0.74 -0.367,-1.321 z m 38.7,32.61 a 15.31,15.31 0 0 1 -4.55,2.907 13.87,13.87 0 0 1 -5.355,1.046 c -2.1,0 -4.083,-0.383 -5.952,-1.15 a 15.494,15.494 0 0 1 -4.918,-3.182 15.273,15.273 0 0 1 -3.355,-4.792 c -0.828,-1.838 -1.241,-3.837 -1.241,-5.998 0,-1.348 0.164,-2.654 0.494,-3.918 a 15.45,15.45 0 0 1 1.402,-3.55 15.055,15.055 0 0 1 2.206,-3.045 13.957,13.957 0 0 1 2.907,-2.379 14.327,14.327 0 0 1 3.493,-1.54 14.084,14.084 0 0 1 3.975,-0.551 c 1.272,0 2.505,0.169 3.7,0.506 1.195,0.337 2.318,0.812 3.367,1.424 1.05,0.613 2.01,1.349 2.884,2.207 a 14.896,14.896 0 0 1 2.252,2.815 13.58,13.58 0 0 1 1.46,3.263 c 0.344,1.157 0.517,2.348 0.517,3.573 0,0.797 -0.012,1.448 -0.035,1.954 -0.023,0.505 -0.142,0.908 -0.356,1.206 -0.215,0.3 -0.57,0.506 -1.069,0.62 -0.498,0.116 -1.23,0.173 -2.194,0.173 h -16.546 c 0.153,0.98 0.463,1.8 0.93,2.46 a 5.842,5.842 0 0 0 1.62,1.573 c 0.613,0.391 1.264,0.67 1.954,0.84 a 8.24,8.24 0 0 0 1.953,0.252 c 0.552,0 1.118,-0.058 1.7,-0.172 a 12.179,12.179 0 0 0 1.69,-0.46 9.557,9.557 0 0 0 1.493,-0.667 c 0.452,-0.252 0.816,-0.517 1.092,-0.792 0.245,-0.2 0.456,-0.349 0.632,-0.449 0.176,-0.1 0.364,-0.149 0.563,-0.149 0.2,0 0.402,0.07 0.61,0.207 a 4.8,4.8 0 0 1 0.7,0.597 l 2.436,2.758 c 0.168,0.2 0.276,0.38 0.322,0.54 0.046,0.161 0.069,0.326 0.069,0.494 0,0.307 -0.085,0.571 -0.253,0.793 a 2.89,2.89 0 0 1 -0.598,0.586 z M 225.256,15.475 c -0.598,0 -1.176,0.119 -1.735,0.356 a 6.547,6.547 0 0 0 -1.575,0.954 c -0.49,0.398 -0.93,0.85 -1.321,1.356 a 8.315,8.315 0 0 0 -0.954,1.54 h 11.743 a 13.536,13.536 0 0 0 -1.045,-1.655 7.081,7.081 0 0 0 -1.287,-1.333 5.558,5.558 0 0 0 -1.655,-0.896 c -0.62,-0.215 -1.344,-0.322 -2.171,-0.322 z" />
</svg>
